HIERARCHY
ROOT Hips
{
  OFFSET -15.027 28.502 -255.589
  CHANNELS 6 Xposition Yposition Zposition Zrotation Xrotation Yrotation
  JOINT LeftUpLeg
  {
    OFFSET 7.876 -7.661 2.688
    CHANNELS 6 Xposition Yposition Zposition Zrotation Xrotation Yrotation
    JOINT LeftLeg
    {
      OFFSET 0.000 -50.640 0.000
      CHANNELS 6 Xposition Yposition Zposition Zrotation Xrotation Yrotation
      JOINT LeftFoot
      {
        OFFSET -0.000 -43.625 -0.000
        CHANNELS 6 Xposition Yposition Zposition Zrotation Xrotation Yrotation
        End Site
        {
          OFFSET 0.000 -8.048 4.646
        }
      }
    }
  }
  JOINT RightUpLeg
  {
    OFFSET -8.039 -7.464 2.252
    CHANNELS 6 Xposition Yposition Zposition Zrotation Xrotation Yrotation
    JOINT RightLeg
    {
      OFFSET 0.000 -50.385 0.000
      CHANNELS 6 Xposition Yposition Zposition Zrotation Xrotation Yrotation
      JOINT RightFoot
      {
        OFFSET 0.000 -41.807 -0.000
        CHANNELS 6 Xposition Yposition Zposition Zrotation Xrotation Yrotation
        End Site
        {
          OFFSET 0.000 -8.435 4.870
        }
      }
    }
  }
  JOINT Spine
  {
    OFFSET 0.000 5.951 -5.951
    CHANNELS 6 Xposition Yposition Zposition Zrotation Xrotation Yrotation
    JOINT LeftShoulder
    {
      OFFSET -0.000 49.157 0.000
      CHANNELS 6 Xposition Yposition Zposition Zrotation Xrotation Yrotation
      JOINT LeftArm
      {
        OFFSET 28.742 0.000 -0.000
        CHANNELS 6 Xposition Yposition Zposition Zrotation Xrotation Yrotation
        JOINT LeftForeArm
        {
          OFFSET 27.356 -0.000 0.000
          CHANNELS 6 Xposition Yposition Zposition Zrotation Xrotation Yrotation
          JOINT LeftHand
          {
            OFFSET 26.756 0.000 -0.000
            CHANNELS 6 Xposition Yposition Zposition Zrotation Xrotation Yrotation
            JOINT LeftHandThumb1
            {
            OFFSET 4.970 -0.620 3.390
            CHANNELS 6 Xposition Yposition Zposition Zrotation Xrotation Yrotation
              JOINT LeftHandThumb2
              {
              OFFSET 2.150 -0.000 0.000
              CHANNELS 6 Xposition Yposition Zposition Zrotation Xrotation Yrotation
                JOINT LeftHandThumb3
                {
                OFFSET 2.200 -0.000 0.000
                CHANNELS 6 Xposition Yposition Zposition Zrotation Xrotation Yrotation
                  JOINT LeftHandThumb4
                  {
                  OFFSET 1.700 -0.000 0.000
                  CHANNELS 6 Xposition Yposition Zposition Zrotation Xrotation Yrotation
                  }
                }
              }
            }
            JOINT LeftHandIndex1
            {
            OFFSET 8.730 0.680 2.070
            CHANNELS 6 Xposition Yposition Zposition Zrotation Xrotation Yrotation
              JOINT LeftHandIndex2
              {
              OFFSET 2.670 -0.000 0.000
              CHANNELS 6 Xposition Yposition Zposition Zrotation Xrotation Yrotation
                JOINT LeftHandIndex3
                {
                OFFSET 2.130 -0.000 0.000
                CHANNELS 6 Xposition Yposition Zposition Zrotation Xrotation Yrotation
                  JOINT LeftHandIndex4
                  {
                  OFFSET 1.800 -0.000 0.000
                  CHANNELS 6 Xposition Yposition Zposition Zrotation Xrotation Yrotation
                  }
                }
              }
            }
            JOINT LeftHandMiddle1
            {
            OFFSET 9.220 0.670 0.550
            CHANNELS 6 Xposition Yposition Zposition Zrotation Xrotation Yrotation
              JOINT LeftHandMiddle2
              {
              OFFSET 2.660 -0.000 0.000
              CHANNELS 6 Xposition Yposition Zposition Zrotation Xrotation Yrotation
                JOINT LeftHandMiddle3
                {
                OFFSET 2.280 -0.000 0.000
                CHANNELS 6 Xposition Yposition Zposition Zrotation Xrotation Yrotation
                  JOINT LeftHandMiddle4
                  {
                  OFFSET 1.500 -0.000 0.000
                  CHANNELS 6 Xposition Yposition Zposition Zrotation Xrotation Yrotation
                  }
                }
              }
            }
            JOINT LeftHandRing1
            {
            OFFSET 9.250 0.670 -1.130
            CHANNELS 6 Xposition Yposition Zposition Zrotation Xrotation Yrotation
              JOINT LeftHandRing2
              {
              OFFSET 2.470 -0.000 0.000
              CHANNELS 6 Xposition Yposition Zposition Zrotation Xrotation Yrotation
                JOINT LeftHandRing3
                {
                OFFSET 2.210 -0.000 0.000
                CHANNELS 6 Xposition Yposition Zposition Zrotation Xrotation Yrotation
                  JOINT LeftHandRing4
                  {
                  OFFSET 1.800 -0.000 0.000
                  CHANNELS 6 Xposition Yposition Zposition Zrotation Xrotation Yrotation
                  }
                }
              }
            }
            JOINT LeftHandPinky1
            {
            OFFSET 9.350 0.660 -2.720
            CHANNELS 6 Xposition Yposition Zposition Zrotation Xrotation Yrotation
              JOINT LeftHandPinky2
              {
              OFFSET 1.630 -0.000 0.000
              CHANNELS 6 Xposition Yposition Zposition Zrotation Xrotation Yrotation
                JOINT LeftHandPinky3
                {
                OFFSET 1.710 -0.000 0.000
                CHANNELS 6 Xposition Yposition Zposition Zrotation Xrotation Yrotation
                  JOINT LeftHandPinky4
                  {
                  OFFSET 1.800 -0.000 0.000
                  CHANNELS 6 Xposition Yposition Zposition Zrotation Xrotation Yrotation
                  }
                }
              }
            }
          }
        }
      }
    }
    JOINT RightShoulder
    {
      OFFSET -0.000 49.157 0.000
      CHANNELS 6 Xposition Yposition Zposition Zrotation Xrotation Yrotation
      JOINT RightArm
      {
        OFFSET -28.683 0.000 -0.000
        CHANNELS 6 Xposition Yposition Zposition Zrotation Xrotation Yrotation
        JOINT RightForeArm
        {
          OFFSET -25.499 0.000 0.000
          CHANNELS 6 Xposition Yposition Zposition Zrotation Xrotation Yrotation
          JOINT RightHand
          {
            OFFSET -25.906 0.000 -0.000
            CHANNELS 6 Xposition Yposition Zposition Zrotation Xrotation Yrotation
            JOINT RightHandThumb1
            {
            OFFSET -4.970 -0.620 3.390
            CHANNELS 6 Xposition Yposition Zposition Zrotation Xrotation Yrotation
              JOINT RightHandThumb2
              {
              OFFSET -2.150 0.000 0.000
              CHANNELS 6 Xposition Yposition Zposition Zrotation Xrotation Yrotation
                JOINT RightHandThumb3
                {
                OFFSET -2.200 0.000 0.000
                CHANNELS 6 Xposition Yposition Zposition Zrotation Xrotation Yrotation
                  JOINT RightHandThumb4
                  {
                  OFFSET -1.700 0.000 0.000
                  CHANNELS 6 Xposition Yposition Zposition Zrotation Xrotation Yrotation
                  }
                }
              }
            }
            JOINT RightHandIndex1
            {
            OFFSET -8.730 0.680 2.070
            CHANNELS 6 Xposition Yposition Zposition Zrotation Xrotation Yrotation
              JOINT RightHandIndex2
              {
              OFFSET -2.670 0.000 0.000
              CHANNELS 6 Xposition Yposition Zposition Zrotation Xrotation Yrotation
                JOINT RightHandIndex3
                {
                OFFSET -2.130 0.000 0.000
                CHANNELS 6 Xposition Yposition Zposition Zrotation Xrotation Yrotation
                  JOINT RightHandIndex4
                  {
                  OFFSET -1.800 0.000 0.000
                  CHANNELS 6 Xposition Yposition Zposition Zrotation Xrotation Yrotation
                  }
                }
              }
            }
            JOINT RightHandMiddle1
            {
            OFFSET -9.220 0.670 0.550
            CHANNELS 6 Xposition Yposition Zposition Zrotation Xrotation Yrotation
              JOINT RightHandMiddle2
              {
              OFFSET -2.660 0.000 0.000
              CHANNELS 6 Xposition Yposition Zposition Zrotation Xrotation Yrotation
                JOINT RightHandMiddle3
                {
                OFFSET -2.280 0.000 0.000
                CHANNELS 6 Xposition Yposition Zposition Zrotation Xrotation Yrotation
                  JOINT RightHandMiddle4
                  {
                  OFFSET -1.500 0.000 0.000
                  CHANNELS 6 Xposition Yposition Zposition Zrotation Xrotation Yrotation
                  }
                }
              }
            }
            JOINT RightHandRing1
            {
            OFFSET -9.250 0.670 -1.130
            CHANNELS 6 Xposition Yposition Zposition Zrotation Xrotation Yrotation
              JOINT RightHandRing2
              {
              OFFSET -2.470 0.000 0.000
              CHANNELS 6 Xposition Yposition Zposition Zrotation Xrotation Yrotation
                JOINT RightHandRing3
                {
                OFFSET -2.210 0.000 0.000
                CHANNELS 6 Xposition Yposition Zposition Zrotation Xrotation Yrotation
                  JOINT RightHandRing4
                  {
                  OFFSET -1.800 0.000 0.000
                  CHANNELS 6 Xposition Yposition Zposition Zrotation Xrotation Yrotation
                  }
                }
              }
            }
            JOINT RightHandPinky1
            {
            OFFSET -9.350 0.660 -2.720
            CHANNELS 6 Xposition Yposition Zposition Zrotation Xrotation Yrotation
              JOINT RightHandPinky2
              {
              OFFSET -1.630 0.000 0.000
              CHANNELS 6 Xposition Yposition Zposition Zrotation Xrotation Yrotation
                JOINT RightHandPinky3
                {
                OFFSET -1.710 0.000 0.000
                CHANNELS 6 Xposition Yposition Zposition Zrotation Xrotation Yrotation
                  JOINT RightHandPinky4
                  {
                  OFFSET -1.800 0.000 0.000
                  CHANNELS 6 Xposition Yposition Zposition Zrotation Xrotation Yrotation
                  }
                }
              }
            }
          }
        }
      }
    }
    JOINT Neck
    {
      OFFSET -0.000 49.157 0.000
      CHANNELS 6 Xposition Yposition Zposition Zrotation Xrotation Yrotation
      JOINT Head
      {
        OFFSET -0.000 7.676 -0.000
        CHANNELS 6 Xposition Yposition Zposition Zrotation Xrotation Yrotation
        End Site
        {
          OFFSET -0.000 0.031 -0.000
        }
      }
    }
  }
}
MOTION
Frames:	6
Frame Time:	0.0333333
-9.84824 26.7545 -286.09 -6.2367 29.1716 1.28425 8.16565 -6.51681 4.55844 18.7646 -31.409 -1.82037 2.98023e-06 -46.0606 -2.38419e-05 11.0345 20.1109 -9.09209e-07 0 -46.8574 4.76837e-05 11.8611 -30.0972 11.8918 -8.33541 -7.13952 4.16493 -9.75789 -30.4674 -4.86176 -1.49012e-06 -49.6801 7.15256e-05 4.0669 23.6558 5.8256e-07 -2.98023e-06 -42.8535 -7.15256e-05 -5.99918 -29.9647 -5.97234 1.49012e-06 5.39433 -5.39432 -0.47361 -27.9849 0.934349 -5.21541e-06 49.1568 -2.38419e-05 -48.7501 1.0352e-05 -1.53656 29.2487 1.19209e-05 0 10.6061 -53.3137 -31.9061 26.1686 -4.76837e-05 1.19209e-05 5.14498e-06 5.12264e-06 -45.1246 28.667 4.76837e-05 -1.19209e-05 5.02986 -0.0570424 -3.65218 0.0062 0.0497 0.0339 0 0 0 0 0.0215 0 0 0 0 0 0.022 0 0 0 0 0 0.017 0 0 0 0 -0.0068 0.0873 0.0207 0 0 0 0 0.0267 0 0 0 0 0 0.0213 0 0 0 0 0 0.018 0 0 0 0 -0.0067 0.0922 0.0055 0 0 0 0 0.0266 0 0 0 0 0 0.0228 0 0 0 0 0 0.015 0 0 0 0 -0.0067 0.0925 -0.0113 0 0 0 0 0.0247 0 0 0 0 0 0.0221 0 0 0 0 0 0.018 0 0 0 0 -0.0066 0.0935 -0.0272 0 0 0 0 0.0163 0 0 0 0 0 0.0171 0 0 0 0 0 0.018 0 0 0 0 -5.21541e-06 49.1568 -2.38419e-05 55.8684 -7.47052e-06 1.51064 -29.7504 5.96046e-06 7.15256e-05 -0.650405 32.5743 23.7653 -26.1109 -3.57628e-05 0 2.55504e-05 1.1146e-05 108.05 -25.619 0 -2.38419e-05 4.08252 -0.145543 12.1799 -0.0062 0.0497 0.0339 0 0 0 0 0.0215 0 0 0 0 0 0.022 0 0 0 0 0 0.017 0 0 0 0 0.0068 0.0873 0.0207 0 0 0 0 0.0267 0 0 0 0 0 0.0213 0 0 0 0 0 0.018 0 0 0 0 0.0067 0.0922 0.0055 0 0 0 0 0.0266 0 0 0 0 0 0.0228 0 0 0 0 0 0.015 0 0 0 0 0.0067 0.0925 -0.0113 0 0 0 0 0.0247 0 0 0 0 0 0.0221 0 0 0 0 0 0.018 0 0 0 0 0.0066 0.0935 -0.0272 0 0 0 0 0.0163 0 0 0 0 0 0.0171 0 0 0 0 0 0.018 0 0 0 0 -5.21541e-06 49.1568 -2.38419e-05 7.24485 18.9247 -2.36095 -1.11759e-06 7.53895 -2.38419e-05 1.01452e-05 -1.19528e-05 1.53412e-07 
-16.3653 26.216 -286.671 -6.53048 27.0551 1.07433 8.75389 -6.73678 4.04792 16.565 -32.5195 -2.0113 8.9407e-06 -44.8052 -2.38419e-05 12.2369 25.2927 -1.88859e-06 8.9407e-06 -47.4787 0 12.5047 -26.3458 12.041 -9.00483 -7.21576 4.43723 -6.2513 -28.5592 -2.22023 0 -48.3279 4.76837e-05 6.45696 22.5989 1.27157e-06 -5.96046e-06 -42.2963 -0.000119209 -6.97457 -25.6452 -6.53503 -1.49012e-06 5.49169 -5.49173 -0.223673 -26.3373 1.03126 -5.96046e-06 49.1568 9.53674e-05 -48.2086 1.48343e-05 -2.22724 29.1684 5.96046e-06 2.38419e-05 12.0618 -53.6806 -26.8845 25.3742 7.15256e-05 5.96046e-06 -7.1115e-08 6.83019e-06 -47.9903 27.6927 -4.76837e-05 -1.49012e-05 4.64142 -0.0571738 -4.49627 0.0062 0.0497 0.0339 0 0 0 0 0.0215 0 0 0 0 0 0.022 0 0 0 0 0 0.017 0 0 0 0 -0.0068 0.0873 0.0207 0 0 0 0 0.0267 0 0 0 0 0 0.0213 0 0 0 0 0 0.018 0 0 0 0 -0.0067 0.0922 0.0055 0 0 0 0 0.0266 0 0 0 0 0 0.0228 0 0 0 0 0 0.015 0 0 0 0 -0.0067 0.0925 -0.0113 0 0 0 0 0.0247 0 0 0 0 0 0.0221 0 0 0 0 0 0.018 0 0 0 0 -0.0066 0.0935 -0.0272 0 0 0 0 0.0163 0 0 0 0 0 0.0171 0 0 0 0 0 0.018 0 0 0 0 -5.96046e-06 49.1568 9.53674e-05 55.374 -2.98821e-06 2.22967 -29.1365 0 -9.53674e-05 -2.29322 34.7054 24.3974 -25.643 2.38419e-05 4.76837e-05 -1.6159e-05 1.55493e-05 108.258 -27.1944 1.19209e-05 -5.96046e-05 2.34252 -0.142163 11.6005 -0.0062 0.0497 0.0339 0 0 0 0 0.0215 0 0 0 0 0 0.022 0 0 0 0 0 0.017 0 0 0 0 0.0068 0.0873 0.0207 0 0 0 0 0.0267 0 0 0 0 0 0.0213 0 0 0 0 0 0.018 0 0 0 0 0.0067 0.0922 0.0055 0 0 0 0 0.0266 0 0 0 0 0 0.0228 0 0 0 0 0 0.015 0 0 0 0 0.0067 0.0925 -0.0113 0 0 0 0 0.0247 0 0 0 0 0 0.0221 0 0 0 0 0 0.018 0 0 0 0 0.0066 0.0935 -0.0272 0 0 0 0 0.0163 0 0 0 0 0 0.0171 0 0 0 0 0 0.018 0 0 0 0 -5.96046e-06 49.1568 9.53674e-05 5.85214 16.3529 -1.65298 -3.72529e-06 8.14805 -4.76837e-05 1.00452e-05 -1.53679e-05 -8.00413e-08 
-16.3653 26.216 -286.671 -6.53048 27.0551 1.07433 8.75389 -6.73678 4.04792 16.565 -32.5195 -2.0113 8.9407e-06 -44.8052 -2.38419e-05 12.2369 25.2927 -1.88859e-06 8.9407e-06 -47.4787 0 12.5047 -26.3458 12.041 -9.00483 -7.21576 4.43723 -6.2513 -28.5592 -2.22023 0 -48.3279 4.76837e-05 6.45696 22.5989 1.27157e-06 -5.96046e-06 -42.2963 -0.000119209 -6.97457 -25.6452 -6.53503 -1.49012e-06 5.49169 -5.49173 -0.223673 -26.3373 1.03126 -5.96046e-06 49.1568 9.53674e-05 -48.2086 1.48343e-05 -2.22724 29.1684 5.96046e-06 2.38419e-05 12.0618 -53.6806 -26.8845 25.3742 7.15256e-05 5.96046e-06 -7.1115e-08 6.83019e-06 -47.9903 27.6927 -4.76837e-05 -1.49012e-05 4.64142 -0.0571738 -4.49627 0.0062 0.0497 0.0339 0 0 0 0 0.0215 0 0 0 0 0 0.022 0 0 0 0 0 0.017 0 0 0 0 -0.0068 0.0873 0.0207 0 0 0 0 0.0267 0 0 0 0 0 0.0213 0 0 0 0 0 0.018 0 0 0 0 -0.0067 0.0922 0.0055 0 0 0 0 0.0266 0 0 0 0 0 0.0228 0 0 0 0 0 0.015 0 0 0 0 -0.0067 0.0925 -0.0113 0 0 0 0 0.0247 0 0 0 0 0 0.0221 0 0 0 0 0 0.018 0 0 0 0 -0.0066 0.0935 -0.0272 0 0 0 0 0.0163 0 0 0 0 0 0.0171 0 0 0 0 0 0.018 0 0 0 0 -5.96046e-06 49.1568 9.53674e-05 55.374 -2.98821e-06 2.22967 -29.1365 0 -9.53674e-05 -2.29322 34.7054 24.3974 -25.643 2.38419e-05 4.76837e-05 -1.6159e-05 1.55493e-05 108.258 -27.1944 1.19209e-05 -5.96046e-05 2.34252 -0.142163 11.6005 -0.0062 0.0497 0.0339 0 0 0 0 0.0215 0 0 0 0 0 0.022 0 0 0 0 0 0.017 0 0 0 0 0.0068 0.0873 0.0207 0 0 0 0 0.0267 0 0 0 0 0 0.0213 0 0 0 0 0 0.018 0 0 0 0 0.0067 0.0922 0.0055 0 0 0 0 0.0266 0 0 0 0 0 0.0228 0 0 0 0 0 0.015 0 0 0 0 0.0067 0.0925 -0.0113 0 0 0 0 0.0247 0 0 0 0 0 0.0221 0 0 0 0 0 0.018 0 0 0 0 0.0066 0.0935 -0.0272 0 0 0 0 0.0163 0 0 0 0 0 0.0171 0 0 0 0 0 0.018 0 0 0 0 -5.96046e-06 49.1568 9.53674e-05 5.85214 16.3529 -1.65298 -3.72529e-06 8.14805 -4.76837e-05 1.00452e-05 -1.53679e-05 -8.00413e-08 
-18.6117 26.1436 -286.775 -6.25197 26.1277 1.10861 8.89006 -6.88006 3.79424 15.053 -32.8691 -1.82597 -2.98023e-06 -44.7195 7.15256e-05 11.0857 28.314 2.4245e-06 2.98023e-06 -47.2487 2.38419e-05 12.4724 -26.6528 12.0702 -9.12486 -7.18751 4.51484 -5.39938 -27.2803 -0.962503 1.49012e-06 -48.0351 4.76837e-05 6.90841 21.6791 4.5938e-07 4.47035e-06 -42.0982 0 -7.30126 -23.6578 -6.66234 5.96046e-06 5.5385 -5.53849 -0.226604 -25.5269 0.889724 -9.68575e-06 49.1568 0.000119209 -48.2349 1.28066e-05 -2.46565 29.1427 2.98023e-06 -0.000119209 12.8738 -53.9395 -24.6394 24.6205 -2.38419e-05 2.38419e-05 -1.01512e-05 0 -47.7132 26.8664 -4.76837e-05 -8.9407e-06 4.48059 -0.0612782 -5.31506 0.0062 0.0497 0.0339 0 0 0 0 0.0215 0 0 0 0 0 0.022 0 0 0 0 0 0.017 0 0 0 0 -0.0068 0.0873 0.0207 0 0 0 0 0.0267 0 0 0 0 0 0.0213 0 0 0 0 0 0.018 0 0 0 0 -0.0067 0.0922 0.0055 0 0 0 0 0.0266 0 0 0 0 0 0.0228 0 0 0 0 0 0.015 0 0 0 0 -0.0067 0.0925 -0.0113 0 0 0 0 0.0247 0 0 0 0 0 0.0221 0 0 0 0 0 0.018 0 0 0 0 -0.0066 0.0935 -0.0272 0 0 0 0 0.0163 0 0 0 0 0 0.0171 0 0 0 0 0 0.018 0 0 0 0 -9.68575e-06 49.1568 0.000119209 54.8984 -5.76297e-06 2.48879 -28.8719 0 2.38419e-05 -1.89424 34.3454 24.6328 -25.4427 -2.38419e-05 -4.76837e-05 -2.30797e-06 1.49591e-05 107.542 -26.0531 2.38419e-05 -1.19209e-05 2.80999 -0.126436 11.9502 -0.0062 0.0497 0.0339 0 0 0 0 0.0215 0 0 0 0 0 0.022 0 0 0 0 0 0.017 0 0 0 0 0.0068 0.0873 0.0207 0 0 0 0 0.0267 0 0 0 0 0 0.0213 0 0 0 0 0 0.018 0 0 0 0 0.0067 0.0922 0.0055 0 0 0 0 0.0266 0 0 0 0 0 0.0228 0 0 0 0 0 0.015 0 0 0 0 0.0067 0.0925 -0.0113 0 0 0 0 0.0247 0 0 0 0 0 0.0221 0 0 0 0 0 0.018 0 0 0 0 0.0066 0.0935 -0.0272 0 0 0 0 0.0163 0 0 0 0 0 0.0171 0 0 0 0 0 0.018 0 0 0 0 -9.68575e-06 49.1568 0.000119209 3.2881 14.7318 -0.837007 -1.49012e-06 8.45034 -4.76837e-05 1.02453e-05 -1.19528e-05 2.13443e-07 
-22.8056 26.9677 -286.67 -6.06634 23.2965 1.10754 8.31593 -6.8633 3.61943 13.4266 -30.935 -0.426941 -2.98023e-06 -45.9222 -2.38419e-05 5.0769 30.3615 4.94738e-07 0 -46.1407 0 10.3445 -29.7813 10.3859 -8.60186 -7.30244 4.21247 -3.89922 -23.4066 -0.836313 -2.98023e-06 -48.736 -4.76837e-05 7.13217 21.138 5.72103e-07 5.96046e-06 -42.3437 -4.76837e-05 -6.91716 -21.7365 -6.21179 -1.49012e-06 5.57132 -5.57122 -0.263566 -23.265 0.846053 -2.98023e-06 49.1568 4.76837e-05 -48.8452 1.24864e-05 -3.06174 29.0286 -5.96046e-06 -4.76837e-05 16.923 -53.5864 -20.569 24.5477 -4.76837e-05 1.19209e-05 1.44522e-05 6.83019e-06 -46.0132 26.1329 0 -5.96046e-06 4.2798 -0.0504722 -6.04024 0.0062 0.0497 0.0339 0 0 0 0 0.0215 0 0 0 0 0 0.022 0 0 0 0 0 0.017 0 0 0 0 -0.0068 0.0873 0.0207 0 0 0 0 0.0267 0 0 0 0 0 0.0213 0 0 0 0 0 0.018 0 0 0 0 -0.0067 0.0922 0.0055 0 0 0 0 0.0266 0 0 0 0 0 0.0228 0 0 0 0 0 0.015 0 0 0 0 -0.0067 0.0925 -0.0113 0 0 0 0 0.0247 0 0 0 0 0 0.0221 0 0 0 0 0 0.018 0 0 0 0 -0.0066 0.0935 -0.0272 0 0 0 0 0.0163 0 0 0 0 0 0.0171 0 0 0 0 0 0.018 0 0 0 0 -2.98023e-06 49.1568 4.76837e-05 54.7898 -6.29658e-06 3.09112 -28.7529 1.78814e-05 -4.76837e-05 -0.519303 32.619 23.8259 -25.2719 1.19209e-05 2.38419e-05 -1.55986e-05 1.37348e-05 106.065 -24.4747 -1.19209e-05 -1.19209e-05 7.4608 0.0229233 14.4793 -0.0062 0.0497 0.0339 0 0 0 0 0.0215 0 0 0 0 0 0.022 0 0 0 0 0 0.017 0 0 0 0 0.0068 0.0873 0.0207 0 0 0 0 0.0267 0 0 0 0 0 0.0213 0 0 0 0 0 0.018 0 0 0 0 0.0067 0.0922 0.0055 0 0 0 0 0.0266 0 0 0 0 0 0.0228 0 0 0 0 0 0.015 0 0 0 0 0.0067 0.0925 -0.0113 0 0 0 0 0.0247 0 0 0 0 0 0.0221 0 0 0 0 0 0.018 0 0 0 0 0.0066 0.0935 -0.0272 0 0 0 0 0.0163 0 0 0 0 0 0.0171 0 0 0 0 0 0.018 0 0 0 0 -2.98023e-06 49.1568 4.76837e-05 3.12967 13.7417 -0.744133 2.98023e-06 8.66875 -4.76837e-05 9.57827e-06 -9.39151e-06 2.13443e-07 
-22.8056 26.9677 -286.67 -6.06634 23.2965 1.10754 8.31593 -6.8633 3.61943 13.4266 -30.935 -0.426941 -2.98023e-06 -45.9222 -2.38419e-05 5.0769 30.3615 4.94738e-07 0 -46.1407 0 10.3445 -29.7813 10.3859 -8.60186 -7.30244 4.21247 -3.89922 -23.4066 -0.836313 -2.98023e-06 -48.736 -4.76837e-05 7.13217 21.138 5.72103e-07 5.96046e-06 -42.3437 -4.76837e-05 -6.91716 -21.7365 -6.21179 -1.49012e-06 5.57132 -5.57122 -0.263566 -23.265 0.846053 -2.98023e-06 49.1568 4.76837e-05 -48.8452 1.24864e-05 -3.06174 29.0286 -5.96046e-06 -4.76837e-05 16.923 -53.5864 -20.569 24.5477 -4.76837e-05 1.19209e-05 1.44522e-05 6.83019e-06 -46.0132 26.1329 0 -5.96046e-06 4.2798 -0.0504722 -6.04024 0.0062 0.0497 0.0339 0 0 0 0 0.0215 0 0 0 0 0 0.022 0 0 0 0 0 0.017 0 0 0 0 -0.0068 0.0873 0.0207 0 0 0 0 0.0267 0 0 0 0 0 0.0213 0 0 0 0 0 0.018 0 0 0 0 -0.0067 0.0922 0.0055 0 0 0 0 0.0266 0 0 0 0 0 0.0228 0 0 0 0 0 0.015 0 0 0 0 -0.0067 0.0925 -0.0113 0 0 0 0 0.0247 0 0 0 0 0 0.0221 0 0 0 0 0 0.018 0 0 0 0 -0.0066 0.0935 -0.0272 0 0 0 0 0.0163 0 0 0 0 0 0.0171 0 0 0 0 0 0.018 0 0 0 0 -2.98023e-06 49.1568 4.76837e-05 54.7898 -6.29658e-06 3.09112 -28.7529 1.78814e-05 -4.76837e-05 -0.519303 32.619 23.8259 -25.2719 1.19209e-05 2.38419e-05 -1.55986e-05 1.37348e-05 106.065 -24.4747 -1.19209e-05 -1.19209e-05 7.4608 0.0229233 14.4793 -0.0062 0.0497 0.0339 0 0 0 0 0.0215 0 0 0 0 0 0.022 0 0 0 0 0 0.017 0 0 0 0 0.0068 0.0873 0.0207 0 0 0 0 0.0267 0 0 0 0 0 0.0213 0 0 0 0 0 0.018 0 0 0 0 0.0067 0.0922 0.0055 0 0 0 0 0.0266 0 0 0 0 0 0.0228 0 0 0 0 0 0.015 0 0 0 0 0.0067 0.0925 -0.0113 0 0 0 0 0.0247 0 0 0 0 0 0.0221 0 0 0 0 0 0.018 0 0 0 0 0.0066 0.0935 -0.0272 0 0 0 0 0.0163 0 0 0 0 0 0.0171 0 0 0 0 0 0.018 0 0 0 0 -2.98023e-06 49.1568 4.76837e-05 3.12967 13.7417 -0.744133 2.98023e-06 8.66875 -4.76837e-05 9.57827e-06 -9.39151e-06 2.13443e-07 
